<?xml version="1.0" encoding="UTF-8" standalone="no"?>
<!-- Created with Inkscape (http://www.inkscape.org/) -->

<svg
   xmlns:osb="http://www.openswatchbook.org/uri/2009/osb"
   xmlns:dc="http://purl.org/dc/elements/1.1/"
   xmlns:cc="http://creativecommons.org/ns#"
   xmlns:rdf="http://www.w3.org/1999/02/22-rdf-syntax-ns#"
   xmlns:svg="http://www.w3.org/2000/svg"
   xmlns="http://www.w3.org/2000/svg"
   xmlns:sodipodi="http://sodipodi.sourceforge.net/DTD/sodipodi-0.dtd"
   xmlns:inkscape="http://www.inkscape.org/namespaces/inkscape"
   width="210mm"
   height="297mm"
   viewBox="0 0 210 297"
   version="1.1"
   id="svg8"
   inkscape:version="0.92.3 (2405546, 2018-03-11)"
   sodipodi:docname="putR.svg"
   inkscape:export-filename="/home/koenp/Desktop/putR.png"
   inkscape:export-xdpi="157.30408"
   inkscape:export-ydpi="157.30408">
  <defs
     id="defs2">
    <marker
       inkscape:stockid="Arrow1Mend"
       orient="auto"
       refY="0.0"
       refX="0.0"
       id="marker15335"
       style="overflow:visible;"
       inkscape:isstock="true">
      <path
         id="path15333"
         d="M 0.0,0.0 L 5.0,-5.0 L -12.5,0.0 L 5.0,5.0 L 0.0,0.0 z "
         style="fill-rule:evenodd;stroke:#a3a3a3;stroke-width:1pt;stroke-opacity:1;fill:#a3a3a3;fill-opacity:1"
         transform="scale(0.4) rotate(180) translate(10,0)" />
    </marker>
    <marker
       inkscape:stockid="Arrow1Mstart"
       orient="auto"
       refY="0.0"
       refX="0.0"
       id="Arrow1Mstart"
       style="overflow:visible"
       inkscape:isstock="true">
      <path
         id="path4663"
         d="M 0.0,0.0 L 5.0,-5.0 L -12.5,0.0 L 5.0,5.0 L 0.0,0.0 z "
         style="fill-rule:evenodd;stroke:#4c4c4c;stroke-width:1pt;stroke-opacity:1;fill:#4c4c4c;fill-opacity:1"
         transform="scale(0.4) translate(10,0)" />
    </marker>
    <marker
       inkscape:isstock="true"
       style="overflow:visible;"
       id="marker10163"
       refX="0.0"
       refY="0.0"
       orient="auto"
       inkscape:stockid="Arrow1Mend">
      <path
         transform="scale(0.4) rotate(180) translate(10,0)"
         style="fill-rule:evenodd;stroke:#00009d;stroke-width:1pt;stroke-opacity:1;fill:#00009d;fill-opacity:1"
         d="M 0.0,0.0 L 5.0,-5.0 L -12.5,0.0 L 5.0,5.0 L 0.0,0.0 z "
         id="path10161" />
    </marker>
    <marker
       inkscape:isstock="true"
       style="overflow:visible;"
       id="marker8047"
       refX="0.0"
       refY="0.0"
       orient="auto"
       inkscape:stockid="Arrow1Mend"
       inkscape:collect="always">
      <path
         transform="scale(0.4) rotate(180) translate(10,0)"
         style="fill-rule:evenodd;stroke:#c0c0c0;stroke-width:1pt;stroke-opacity:1;fill:#c0c0c0;fill-opacity:1"
         d="M 0.0,0.0 L 5.0,-5.0 L -12.5,0.0 L 5.0,5.0 L 0.0,0.0 z "
         id="path8045" />
    </marker>
    <marker
       inkscape:isstock="true"
       style="overflow:visible;"
       id="marker7715"
       refX="0.0"
       refY="0.0"
       orient="auto"
       inkscape:stockid="Arrow1Mend">
      <path
         transform="scale(0.4) rotate(180) translate(10,0)"
         style="fill-rule:evenodd;stroke:#000000;stroke-width:1pt;stroke-opacity:1;fill:#000000;fill-opacity:1"
         d="M 0.0,0.0 L 5.0,-5.0 L -12.5,0.0 L 5.0,5.0 L 0.0,0.0 z "
         id="path7713" />
    </marker>
    <marker
       inkscape:stockid="Arrow1Mend"
       orient="auto"
       refY="0.0"
       refX="0.0"
       id="marker6828"
       style="overflow:visible;"
       inkscape:isstock="true">
      <path
         id="path6826"
         d="M 0.0,0.0 L 5.0,-5.0 L -12.5,0.0 L 5.0,5.0 L 0.0,0.0 z "
         style="fill-rule:evenodd;stroke:#a3a3a3;stroke-width:1pt;stroke-opacity:1;fill:#a3a3a3;fill-opacity:1"
         transform="scale(0.4) rotate(180) translate(10,0)" />
    </marker>
    <marker
       inkscape:stockid="Arrow1Mend"
       orient="auto"
       refY="0.0"
       refX="0.0"
       id="marker6818"
       style="overflow:visible;"
       inkscape:isstock="true"
       inkscape:collect="always">
      <path
         id="path6816"
         d="M 0.0,0.0 L 5.0,-5.0 L -12.5,0.0 L 5.0,5.0 L 0.0,0.0 z "
         style="fill-rule:evenodd;stroke:#4c4c4c;stroke-width:1pt;stroke-opacity:1;fill:#4c4c4c;fill-opacity:1"
         transform="scale(0.4) rotate(180) translate(10,0)" />
    </marker>
    <marker
       inkscape:stockid="Arrow1Mend"
       orient="auto"
       refY="0.0"
       refX="0.0"
       id="marker6682"
       style="overflow:visible;"
       inkscape:isstock="true">
      <path
         id="path6680"
         d="M 0.0,0.0 L 5.0,-5.0 L -12.5,0.0 L 5.0,5.0 L 0.0,0.0 z "
         style="fill-rule:evenodd;stroke:#a3a3a3;stroke-width:1pt;stroke-opacity:1;fill:#a3a3a3;fill-opacity:1"
         transform="scale(0.4) rotate(180) translate(10,0)" />
    </marker>
    <marker
       inkscape:stockid="Arrow1Mend"
       orient="auto"
       refY="0.0"
       refX="0.0"
       id="marker6552"
       style="overflow:visible;"
       inkscape:isstock="true">
      <path
         id="path6550"
         d="M 0.0,0.0 L 5.0,-5.0 L -12.5,0.0 L 5.0,5.0 L 0.0,0.0 z "
         style="fill-rule:evenodd;stroke:#009a00;stroke-width:1pt;stroke-opacity:1;fill:#009a00;fill-opacity:1"
         transform="scale(0.4) rotate(180) translate(10,0)" />
    </marker>
    <marker
       inkscape:stockid="Arrow1Mend"
       orient="auto"
       refY="0.0"
       refX="0.0"
       id="marker6428"
       style="overflow:visible;"
       inkscape:isstock="true">
      <path
         id="path6426"
         d="M 0.0,0.0 L 5.0,-5.0 L -12.5,0.0 L 5.0,5.0 L 0.0,0.0 z "
         style="fill-rule:evenodd;stroke:#000000;stroke-width:1pt;stroke-opacity:1;fill:#000000;fill-opacity:1"
         transform="scale(0.4) rotate(180) translate(10,0)" />
    </marker>
    <marker
       inkscape:isstock="true"
       style="overflow:visible;"
       id="marker6216"
       refX="0.0"
       refY="0.0"
       orient="auto"
       inkscape:stockid="Arrow1Mend">
      <path
         transform="scale(0.4) rotate(180) translate(10,0)"
         style="fill-rule:evenodd;stroke:#a3a3a3;stroke-width:1pt;stroke-opacity:1;fill:#a3a3a3;fill-opacity:1"
         d="M 0.0,0.0 L 5.0,-5.0 L -12.5,0.0 L 5.0,5.0 L 0.0,0.0 z "
         id="path6214" />
    </marker>
    <marker
       inkscape:stockid="Arrow1Lend"
       orient="auto"
       refY="0.0"
       refX="0.0"
       id="marker5899"
       style="overflow:visible;"
       inkscape:isstock="true">
      <path
         id="path5897"
         d="M 0.0,0.0 L 5.0,-5.0 L -12.5,0.0 L 5.0,5.0 L 0.0,0.0 z "
         style="fill-rule:evenodd;stroke:#009a00;stroke-width:1pt;stroke-opacity:1;fill:#009a00;fill-opacity:1"
         transform="scale(0.8) rotate(180) translate(12.5,0)" />
    </marker>
    <marker
       inkscape:isstock="true"
       style="overflow:visible;"
       id="marker5693"
       refX="0.0"
       refY="0.0"
       orient="auto"
       inkscape:stockid="Arrow1Lend">
      <path
         transform="scale(0.8) rotate(180) translate(12.5,0)"
         style="fill-rule:evenodd;stroke:#009a00;stroke-width:1pt;stroke-opacity:1;fill:#009a00;fill-opacity:1"
         d="M 0.0,0.0 L 5.0,-5.0 L -12.5,0.0 L 5.0,5.0 L 0.0,0.0 z "
         id="path5691" />
    </marker>
    <marker
       inkscape:isstock="true"
       style="overflow:visible;"
       id="marker5605"
       refX="0.0"
       refY="0.0"
       orient="auto"
       inkscape:stockid="Arrow1Lend">
      <path
         transform="scale(0.8) rotate(180) translate(12.5,0)"
         style="fill-rule:evenodd;stroke:#009a00;stroke-width:1pt;stroke-opacity:1;fill:#009a00;fill-opacity:1"
         d="M 0.0,0.0 L 5.0,-5.0 L -12.5,0.0 L 5.0,5.0 L 0.0,0.0 z "
         id="path5603" />
    </marker>
    <marker
       inkscape:isstock="true"
       style="overflow:visible;"
       id="marker5523"
       refX="0.0"
       refY="0.0"
       orient="auto"
       inkscape:stockid="Arrow1Lend">
      <path
         transform="scale(0.8) rotate(180) translate(12.5,0)"
         style="fill-rule:evenodd;stroke:#009a00;stroke-width:1pt;stroke-opacity:1;fill:#009a00;fill-opacity:1"
         d="M 0.0,0.0 L 5.0,-5.0 L -12.5,0.0 L 5.0,5.0 L 0.0,0.0 z "
         id="path5521" />
    </marker>
    <marker
       inkscape:isstock="true"
       style="overflow:visible;"
       id="marker5447"
       refX="0.0"
       refY="0.0"
       orient="auto"
       inkscape:stockid="Arrow1Lend">
      <path
         transform="scale(0.8) rotate(180) translate(12.5,0)"
         style="fill-rule:evenodd;stroke:#009a00;stroke-width:1pt;stroke-opacity:1;fill:#009a00;fill-opacity:1"
         d="M 0.0,0.0 L 5.0,-5.0 L -12.5,0.0 L 5.0,5.0 L 0.0,0.0 z "
         id="path5445" />
    </marker>
    <marker
       inkscape:isstock="true"
       style="overflow:visible;"
       id="marker5437"
       refX="0.0"
       refY="0.0"
       orient="auto"
       inkscape:stockid="Arrow1Lend">
      <path
         transform="scale(0.8) rotate(180) translate(12.5,0)"
         style="fill-rule:evenodd;stroke:#009a00;stroke-width:1pt;stroke-opacity:1;fill:#009a00;fill-opacity:1"
         d="M 0.0,0.0 L 5.0,-5.0 L -12.5,0.0 L 5.0,5.0 L 0.0,0.0 z "
         id="path5435" />
    </marker>
    <marker
       inkscape:isstock="true"
       style="overflow:visible;"
       id="marker5367"
       refX="0.0"
       refY="0.0"
       orient="auto"
       inkscape:stockid="Arrow1Lend">
      <path
         transform="scale(0.8) rotate(180) translate(12.5,0)"
         style="fill-rule:evenodd;stroke:#009a00;stroke-width:1pt;stroke-opacity:1;fill:#009a00;fill-opacity:1"
         d="M 0.0,0.0 L 5.0,-5.0 L -12.5,0.0 L 5.0,5.0 L 0.0,0.0 z "
         id="path5365" />
    </marker>
    <marker
       inkscape:isstock="true"
       style="overflow:visible"
       id="marker5291"
       refX="0.0"
       refY="0.0"
       orient="auto"
       inkscape:stockid="Arrow1Lstart">
      <path
         transform="scale(0.8) translate(12.5,0)"
         style="fill-rule:evenodd;stroke:#009a00;stroke-width:1pt;stroke-opacity:1;fill:#009a00;fill-opacity:1"
         d="M 0.0,0.0 L 5.0,-5.0 L -12.5,0.0 L 5.0,5.0 L 0.0,0.0 z "
         id="path5289" />
    </marker>
    <marker
       inkscape:isstock="true"
       style="overflow:visible"
       id="marker5233"
       refX="0.0"
       refY="0.0"
       orient="auto"
       inkscape:stockid="Arrow1Lstart">
      <path
         transform="scale(0.8) translate(12.5,0)"
         style="fill-rule:evenodd;stroke:#009a00;stroke-width:1pt;stroke-opacity:1;fill:#009a00;fill-opacity:1"
         d="M 0.0,0.0 L 5.0,-5.0 L -12.5,0.0 L 5.0,5.0 L 0.0,0.0 z "
         id="path5231" />
    </marker>
    <marker
       inkscape:isstock="true"
       style="overflow:visible"
       id="marker5181"
       refX="0.0"
       refY="0.0"
       orient="auto"
       inkscape:stockid="Arrow1Lstart">
      <path
         transform="scale(0.8) translate(12.5,0)"
         style="fill-rule:evenodd;stroke:#009a00;stroke-width:1pt;stroke-opacity:1;fill:#009a00;fill-opacity:1"
         d="M 0.0,0.0 L 5.0,-5.0 L -12.5,0.0 L 5.0,5.0 L 0.0,0.0 z "
         id="path5179" />
    </marker>
    <marker
       inkscape:isstock="true"
       style="overflow:visible"
       id="marker5135"
       refX="0.0"
       refY="0.0"
       orient="auto"
       inkscape:stockid="Arrow1Lstart">
      <path
         transform="scale(0.8) translate(12.5,0)"
         style="fill-rule:evenodd;stroke:#009a00;stroke-width:1pt;stroke-opacity:1;fill:#009a00;fill-opacity:1"
         d="M 0.0,0.0 L 5.0,-5.0 L -12.5,0.0 L 5.0,5.0 L 0.0,0.0 z "
         id="path5133" />
    </marker>
    <marker
       inkscape:isstock="true"
       style="overflow:visible"
       id="marker5095"
       refX="0.0"
       refY="0.0"
       orient="auto"
       inkscape:stockid="Arrow1Lstart">
      <path
         transform="scale(0.8) translate(12.5,0)"
         style="fill-rule:evenodd;stroke:#009a00;stroke-width:1pt;stroke-opacity:1;fill:#009a00;fill-opacity:1"
         d="M 0.0,0.0 L 5.0,-5.0 L -12.5,0.0 L 5.0,5.0 L 0.0,0.0 z "
         id="path5093" />
    </marker>
    <marker
       inkscape:isstock="true"
       style="overflow:visible"
       id="marker5061"
       refX="0.0"
       refY="0.0"
       orient="auto"
       inkscape:stockid="Arrow1Lstart">
      <path
         transform="scale(0.8) translate(12.5,0)"
         style="fill-rule:evenodd;stroke:#009a00;stroke-width:1pt;stroke-opacity:1;fill:#009a00;fill-opacity:1"
         d="M 0.0,0.0 L 5.0,-5.0 L -12.5,0.0 L 5.0,5.0 L 0.0,0.0 z "
         id="path5059" />
    </marker>
    <marker
       inkscape:stockid="Arrow1Lstart"
       orient="auto"
       refY="0.0"
       refX="0.0"
       id="marker4973"
       style="overflow:visible"
       inkscape:isstock="true">
      <path
         id="path4971"
         d="M 0.0,0.0 L 5.0,-5.0 L -12.5,0.0 L 5.0,5.0 L 0.0,0.0 z "
         style="fill-rule:evenodd;stroke:#00a000;stroke-width:1pt;stroke-opacity:1;fill:#00a000;fill-opacity:1"
         transform="scale(0.8) translate(12.5,0)" />
    </marker>
    <linearGradient
       id="linearGradient4522"
       osb:paint="solid">
      <stop
         style="stop-color:#000000;stop-opacity:1;"
         offset="0"
         id="stop4520" />
    </linearGradient>
    <marker
       inkscape:isstock="true"
       style="overflow:visible"
       id="marker8047-3"
       refX="0"
       refY="0"
       orient="auto"
       inkscape:stockid="Arrow1Mend">
      <path
         inkscape:connector-curvature="0"
         transform="matrix(-0.4,0,0,-0.4,-4,0)"
         style="fill:#c0c0c0;fill-opacity:1;fill-rule:evenodd;stroke:#c0c0c0;stroke-width:1.00000003pt;stroke-opacity:1"
         d="M 0,0 5,-5 -12.5,0 5,5 Z"
         id="path8045-7" />
    </marker>
  </defs>
  <sodipodi:namedview
     id="base"
     pagecolor="#ffffff"
     bordercolor="#666666"
     borderopacity="1.0"
     inkscape:pageopacity="0.0"
     inkscape:pageshadow="2"
     inkscape:zoom="2.602996"
     inkscape:cx="192.38512"
     inkscape:cy="926.12504"
     inkscape:document-units="mm"
     inkscape:current-layer="layer1"
     showgrid="false"
     inkscape:window-width="1600"
     inkscape:window-height="1145"
     inkscape:window-x="0"
     inkscape:window-y="27"
     inkscape:window-maximized="1" />
  <metadata
     id="metadata5">
    <rdf:RDF>
      <cc:Work
         rdf:about="">
        <dc:format>image/svg+xml</dc:format>
        <dc:type
           rdf:resource="http://purl.org/dc/dcmitype/StillImage" />
        <dc:title></dc:title>
      </cc:Work>
    </rdf:RDF>
  </metadata>
  <g
     inkscape:label="Layer 1"
     inkscape:groupmode="layer"
     id="layer1">
    <rect
       id="rect3713"
       width="1.8898809"
       height="4.5357141"
       x="56.885414"
       y="22.589285"
       style="stroke-width:0.26458332;fill:none;fill-opacity:1;stroke:#000000;stroke-opacity:1"
       inkscape:export-xdpi="96"
       inkscape:export-ydpi="96" />
    <text
       xml:space="preserve"
       style="font-style:normal;font-variant:normal;font-weight:normal;font-stretch:normal;font-size:3.52777767px;line-height:1.25;font-family:monospace;-inkscape-font-specification:'monospace, Normal';font-variant-ligatures:normal;font-variant-caps:normal;font-variant-numeric:normal;font-feature-settings:normal;text-align:start;letter-spacing:0px;word-spacing:0px;writing-mode:lr-tb;text-anchor:start;fill:#000000;fill-opacity:1;stroke:none;stroke-width:0.26458332"
       x="35.643154"
       y="33.267113"
       id="text4528"
       inkscape:export-xdpi="96"
       inkscape:export-ydpi="96"><tspan
         sodipodi:role="line"
         id="tspan10517"
         style="font-style:normal;font-variant:normal;font-weight:normal;font-stretch:normal;font-size:3.52777767px;font-family:monospace;-inkscape-font-specification:'monospace, Normal';font-variant-ligatures:normal;font-variant-caps:normal;font-variant-numeric:normal;font-feature-settings:normal;text-align:start;writing-mode:lr-tb;text-anchor:start"
         x="35.643154"
         y="33.267113">get λs</tspan></text>
    <rect
       id="rect3713-3"
       width="1.8898809"
       height="4.5357141"
       x="41.104912"
       y="40.070683"
       style="fill:none;fill-opacity:1;stroke:#000000;stroke-width:0.26458332;stroke-opacity:1"
       inkscape:export-xdpi="96"
       inkscape:export-ydpi="96" />
    <text
       xml:space="preserve"
       style="font-style:normal;font-variant:normal;font-weight:normal;font-stretch:normal;font-size:3.52777767px;line-height:1.25;font-family:monospace;-inkscape-font-specification:'monospace, Normal';font-variant-ligatures:normal;font-variant-caps:normal;font-variant-numeric:normal;font-feature-settings:normal;text-align:start;letter-spacing:0px;word-spacing:0px;writing-mode:lr-tb;text-anchor:start;fill:#000000;fill-opacity:1;stroke:none;stroke-width:0.26458332"
       x="25.026251"
       y="54.747997"
       id="text4528-6"
       inkscape:export-xdpi="96"
       inkscape:export-ydpi="96"><tspan
         sodipodi:role="line"
         id="tspan4526-7"
         x="25.026251"
         y="54.747997"
         style="font-style:normal;font-variant:normal;font-weight:normal;font-stretch:normal;font-size:3.52777767px;font-family:monospace;-inkscape-font-specification:'monospace, Normal';font-variant-ligatures:normal;font-variant-caps:normal;font-variant-numeric:normal;font-feature-settings:normal;text-align:start;writing-mode:lr-tb;text-anchor:start;stroke-width:0.26458332">put t</tspan></text>
    <text
       xml:space="preserve"
       style="font-style:normal;font-weight:normal;font-size:3.52777778px;line-height:1.25;font-family:monospace;letter-spacing:0px;word-spacing:0px;fill:#000000;fill-opacity:1;stroke:none;stroke-width:0.26458332;-inkscape-font-specification:'monospace, Normal';font-stretch:normal;font-variant:normal;text-anchor:start;text-align:start;writing-mode:lr;font-variant-ligatures:normal;font-variant-caps:normal;font-variant-numeric:normal;font-feature-settings:normal;"
       x="24.857935"
       y="63.942146"
       id="text4528-6-5"
       inkscape:export-xdpi="96"
       inkscape:export-ydpi="96"><tspan
         sodipodi:role="line"
         id="tspan4526-7-3"
         x="24.857935"
         y="63.942146"
         style="font-style:normal;font-variant:normal;font-weight:normal;font-stretch:normal;font-size:3.52777778px;font-family:monospace;-inkscape-font-specification:'monospace, Normal';font-variant-ligatures:normal;font-variant-caps:normal;font-variant-numeric:normal;font-feature-settings:normal;text-align:start;writing-mode:lr;text-anchor:start;fill:#000000;fill-opacity:1;stroke-width:0.26458332;">ret x</tspan></text>
    <text
       xml:space="preserve"
       style="font-style:normal;font-variant:normal;font-weight:normal;font-stretch:normal;font-size:3.52777767px;line-height:1.25;font-family:monospace;-inkscape-font-specification:'monospace, Normal';font-variant-ligatures:normal;font-variant-caps:normal;font-variant-numeric:normal;font-feature-settings:normal;text-align:start;letter-spacing:0px;word-spacing:0px;writing-mode:lr-tb;text-anchor:start;fill:#000000;fill-opacity:1;stroke:none;stroke-width:0.26458332"
       x="48.802734"
       y="54.511639"
       id="text4528-6-56"
       inkscape:export-xdpi="96"
       inkscape:export-ydpi="96"><tspan
         sodipodi:role="line"
         id="tspan4526-7-2"
         x="48.802734"
         y="54.511639"
         style="font-style:normal;font-variant:normal;font-weight:normal;font-stretch:normal;font-size:3.52777767px;font-family:monospace;-inkscape-font-specification:'monospace, Normal';font-variant-ligatures:normal;font-variant-caps:normal;font-variant-numeric:normal;font-feature-settings:normal;text-align:start;writing-mode:lr-tb;text-anchor:start;stroke-width:0.26458332">put s</tspan></text>
    <text
       xml:space="preserve"
       style="font-style:normal;font-weight:normal;font-size:3.52777778px;line-height:1.25;font-family:monospace;letter-spacing:0px;word-spacing:0px;fill:#000000;fill-opacity:1;stroke:none;stroke-width:0.26458332;-inkscape-font-specification:'monospace, Normal';font-stretch:normal;font-variant:normal;text-anchor:start;text-align:start;writing-mode:lr;font-variant-ligatures:normal;font-variant-caps:normal;font-variant-numeric:normal;font-feature-settings:normal;"
       x="52.814819"
       y="63.942146"
       id="text4528-6-56-9"
       inkscape:export-xdpi="96"
       inkscape:export-ydpi="96"><tspan
         sodipodi:role="line"
         id="tspan4526-7-2-1"
         x="52.814819"
         y="63.942146"
         style="font-size:3.52777778px;stroke-width:0.26458332;-inkscape-font-specification:'monospace, Normal';font-family:monospace;font-weight:normal;font-style:normal;font-stretch:normal;font-variant:normal;text-anchor:start;text-align:start;writing-mode:lr;font-variant-ligatures:normal;font-variant-caps:normal;font-variant-numeric:normal;font-feature-settings:normal;">∅</tspan></text>
    <text
       xml:space="preserve"
       style="font-style:normal;font-weight:normal;font-size:3.52777778px;line-height:1.25;font-family:monospace;letter-spacing:0px;word-spacing:0px;fill:#000000;fill-opacity:1;stroke:none;stroke-width:0.26458332;-inkscape-font-specification:'monospace, Normal';font-stretch:normal;font-variant:normal;text-anchor:start;text-align:start;writing-mode:lr;font-variant-ligatures:normal;font-variant-caps:normal;font-variant-numeric:normal;font-feature-settings:normal;"
       x="69.079384"
       y="32.674187"
       id="text4528-2"
       inkscape:export-xdpi="96"
       inkscape:export-ydpi="96"><tspan
         sodipodi:role="line"
         id="tspan4526-70"
         x="69.079384"
         y="32.674187"
         style="font-style:normal;font-variant:normal;font-weight:normal;font-stretch:normal;font-size:3.52777778px;font-family:monospace;-inkscape-font-specification:'monospace, Normal';font-variant-ligatures:normal;font-variant-caps:normal;font-variant-numeric:normal;font-feature-settings:normal;text-align:start;writing-mode:lr;text-anchor:start;fill:#000000;fill-opacity:1;stroke-width:0.26458332;">ret y</tspan></text>
    <path
       style="display:inline;fill:none;fill-rule:evenodd;stroke:#000000;stroke-width:0.2856943px;stroke-linecap:butt;stroke-linejoin:miter;stroke-opacity:1"
       d="M 56.882154,25.1601 42.147605,29.760502"
       id="path4635"
       inkscape:connector-type="polyline"
       inkscape:connector-curvature="3"
       inkscape:export-xdpi="96"
       inkscape:export-ydpi="96" />
    <path
       style="fill:none;fill-rule:evenodd;stroke:#000000;stroke-width:0.26450327px;stroke-linecap:butt;stroke-linejoin:miter;stroke-opacity:1"
       d="m 41.104811,43.329111 -7.29877,6.829414"
       id="path4639"
       inkscape:connector-type="polyline"
       inkscape:connector-curvature="3"
       inkscape:export-xdpi="96"
       inkscape:export-ydpi="96" />
    <path
       style="fill:none;fill-rule:evenodd;stroke:#000000;stroke-width:0.26499999;stroke-linecap:butt;stroke-linejoin:miter;stroke-miterlimit:4;stroke-dasharray:none;stroke-opacity:1"
       d="m 42.994793,43.317635 6.898064,7.147394"
       id="path4641"
       inkscape:connector-type="polyline"
       inkscape:connector-curvature="3"
       inkscape:connection-start="#rect3713-3"
       inkscape:export-xdpi="96"
       inkscape:export-ydpi="96" />
    <path
       style="fill:none;fill-rule:evenodd;stroke:#000000;stroke-width:0.26458332px;stroke-linecap:butt;stroke-linejoin:miter;stroke-opacity:1"
       d="m 29.65223,56.02128 v 3.590774"
       id="path4643"
       inkscape:connector-type="polyline"
       inkscape:connector-curvature="3"
       inkscape:export-xdpi="96"
       inkscape:export-ydpi="96" />
    <path
       style="fill:none;fill-rule:evenodd;stroke:#000000;stroke-width:0.26499999;stroke-linecap:butt;stroke-linejoin:miter;stroke-miterlimit:4;stroke-dasharray:none;stroke-opacity:1"
       d="m 54.352978,56.304762 0.09449,3.779761"
       id="path4645"
       inkscape:connector-type="polyline"
       inkscape:connector-curvature="3"
       inkscape:export-xdpi="96"
       inkscape:export-ydpi="96" />
    <path
       style="fill:none;fill-rule:evenodd;stroke:#000000;stroke-width:0.26458332px;stroke-linecap:butt;stroke-linejoin:miter;stroke-opacity:1"
       d="m 41.975636,34.114583 0.06371,5.959074"
       id="path4647"
       inkscape:connector-type="polyline"
       inkscape:connector-curvature="3"
       inkscape:export-xdpi="96"
       inkscape:export-ydpi="96" />
    <path
       style="fill:none;fill-rule:evenodd;stroke:#000000;stroke-width:0.26458332px;stroke-linecap:butt;stroke-linejoin:miter;stroke-opacity:1"
       d="m 58.775295,25.174473 11.717263,3.9349"
       id="path4651"
       inkscape:connector-type="polyline"
       inkscape:connector-curvature="3"
       inkscape:connection-start="#rect3713"
       inkscape:export-xdpi="96"
       inkscape:export-ydpi="96" />
    <path
       style="fill:none;stroke:#a3a3a3;stroke-width:0.26499999;stroke-linecap:butt;stroke-linejoin:miter;stroke-miterlimit:4;stroke-dasharray:none;stroke-opacity:1;marker-end:url(#marker6828)"
       d="m 23.793598,54.320387 -0.188986,7.843007"
       id="path5035"
       inkscape:connector-curvature="0"
       inkscape:export-xdpi="96"
       inkscape:export-ydpi="96" />
    <path
       style="fill:none;stroke:#4c4c4c;stroke-width:0.26499999;stroke-linecap:butt;stroke-linejoin:miter;stroke-miterlimit:4;stroke-dasharray:1.05999995, 0.26499999000000002;stroke-dashoffset:0;stroke-opacity:1;marker-end:url(#marker6818)"
       d="M 35.48472,62.608187 C 38.675742,36.444461 47.006616,50.877492 47.006616,50.877492"
       id="path5041"
       inkscape:connector-curvature="0"
       sodipodi:nodetypes="cc"
       inkscape:export-xdpi="96"
       inkscape:export-ydpi="96" />
    <path
       style="fill:none;stroke:#a3a3a3;stroke-width:0.26499999;stroke-linecap:butt;stroke-linejoin:miter;stroke-miterlimit:4;stroke-dasharray:none;stroke-opacity:1;marker-end:url(#marker6682)"
       d="m 50.850323,55.851191 c -0.16607,0.850447 0.09396,6.992559 0.09396,6.992559"
       id="path5043"
       inkscape:connector-curvature="0"
       inkscape:export-xdpi="96"
       inkscape:export-ydpi="96" />
    <text
       xml:space="preserve"
       style="font-style:normal;font-weight:normal;font-size:3.52777778px;line-height:1.25;font-family:monospace;letter-spacing:0px;word-spacing:0px;fill:#9e9e9e;fill-opacity:1;stroke:none;stroke-width:0.26458332;-inkscape-font-specification:'monospace, Normal';font-stretch:normal;font-variant:normal;text-anchor:start;text-align:start;writing-mode:lr;font-variant-ligatures:normal;font-variant-caps:normal;font-variant-numeric:normal;font-feature-settings:normal;"
       x="32.127975"
       y="37.141369"
       id="text6023"
       inkscape:export-xdpi="96"
       inkscape:export-ydpi="96"><tspan
         sodipodi:role="line"
         id="tspan6021"
         x="32.127975"
         y="37.141369"
         style="font-size:3.52777778px;fill:#9e9e9e;fill-opacity:1;stroke-width:0.26458332;-inkscape-font-specification:'monospace, Normal';font-family:monospace;font-weight:normal;font-style:normal;font-stretch:normal;font-variant:normal;text-anchor:start;text-align:start;writing-mode:lr;font-variant-ligatures:normal;font-variant-caps:normal;font-variant-numeric:normal;font-feature-settings:normal;">s</tspan></text>
    <text
       xml:space="preserve"
       style="font-style:normal;font-weight:normal;font-size:3.52777778px;line-height:1.25;font-family:monospace;letter-spacing:0px;word-spacing:0px;fill:#9e9e9e;fill-opacity:1;stroke:none;stroke-width:0.26458332;-inkscape-font-specification:'monospace, Normal';font-stretch:normal;font-variant:normal;text-anchor:start;text-align:start;writing-mode:lr;font-variant-ligatures:normal;font-variant-caps:normal;font-variant-numeric:normal;font-feature-settings:normal;"
       x="20.786276"
       y="58.968559"
       id="text6023-1"
       inkscape:export-xdpi="96"
       inkscape:export-ydpi="96"><tspan
         sodipodi:role="line"
         id="tspan6021-94"
         x="20.786276"
         y="58.968559"
         style="font-size:3.52777778px;fill:#9e9e9e;fill-opacity:1;stroke-width:0.26458332;-inkscape-font-specification:'monospace, Normal';font-family:monospace;font-weight:normal;font-style:normal;font-stretch:normal;font-variant:normal;text-anchor:start;text-align:start;writing-mode:lr;font-variant-ligatures:normal;font-variant-caps:normal;font-variant-numeric:normal;font-feature-settings:normal;">t</tspan><tspan
         sodipodi:role="line"
         x="20.786276"
         y="72.197723"
         style="font-size:3.52777778px;fill:#9e9e9e;fill-opacity:1;stroke-width:0.26458332;-inkscape-font-specification:'monospace, Normal';font-family:monospace;font-weight:normal;font-style:normal;font-stretch:normal;font-variant:normal;text-anchor:start;text-align:start;writing-mode:lr;font-variant-ligatures:normal;font-variant-caps:normal;font-variant-numeric:normal;font-feature-settings:normal;"
         id="tspan6078" /></text>
    <text
       xml:space="preserve"
       style="font-style:normal;font-weight:normal;font-size:3.52777778px;line-height:1.25;font-family:monospace;letter-spacing:0px;word-spacing:0px;fill:#565656;fill-opacity:1;stroke:none;stroke-width:0.26458332;-inkscape-font-specification:'monospace, Normal';font-stretch:normal;font-variant:normal;text-anchor:start;text-align:start;writing-mode:lr;font-variant-ligatures:normal;font-variant-caps:normal;font-variant-numeric:normal;font-feature-settings:normal;"
       x="37.445679"
       y="58.06913"
       id="text6023-1-2"
       inkscape:export-xdpi="96"
       inkscape:export-ydpi="96"><tspan
         sodipodi:role="line"
         id="tspan6021-94-0"
         x="37.445679"
         y="58.06913"
         style="font-size:3.52777778px;fill:#565656;fill-opacity:1;stroke-width:0.26458332;-inkscape-font-specification:'monospace, Normal';font-family:monospace;font-weight:normal;font-style:normal;font-stretch:normal;font-variant:normal;text-anchor:start;text-align:start;writing-mode:lr;font-variant-ligatures:normal;font-variant-caps:normal;font-variant-numeric:normal;font-feature-settings:normal;">t</tspan><tspan
         sodipodi:role="line"
         x="37.445679"
         y="71.298294"
         style="font-size:3.52777778px;fill:#565656;fill-opacity:1;stroke-width:0.26458332;-inkscape-font-specification:'monospace, Normal';font-family:monospace;font-weight:normal;font-style:normal;font-stretch:normal;font-variant:normal;text-anchor:start;text-align:start;writing-mode:lr;font-variant-ligatures:normal;font-variant-caps:normal;font-variant-numeric:normal;font-feature-settings:normal;"
         id="tspan6078-6" /></text>
    <text
       xml:space="preserve"
       style="font-style:normal;font-variant:normal;font-weight:normal;font-stretch:normal;font-size:3.52777767px;line-height:1.25;font-family:monospace;-inkscape-font-specification:'monospace, Normal';font-variant-ligatures:normal;font-variant-caps:normal;font-variant-numeric:normal;font-feature-settings:normal;text-align:start;letter-spacing:0px;word-spacing:0px;writing-mode:lr-tb;text-anchor:start;fill:#9e9e9e;fill-opacity:1;stroke:none;stroke-width:0.26458332"
       x="47.514763"
       y="60.137604"
       id="text6023-4-6"
       inkscape:export-xdpi="96"
       inkscape:export-ydpi="96"><tspan
         sodipodi:role="line"
         id="tspan6021-99-1"
         x="47.514763"
         y="60.137604"
         style="font-style:normal;font-variant:normal;font-weight:normal;font-stretch:normal;font-size:3.52777767px;font-family:monospace;-inkscape-font-specification:'monospace, Normal';font-variant-ligatures:normal;font-variant-caps:normal;font-variant-numeric:normal;font-feature-settings:normal;text-align:start;writing-mode:lr-tb;text-anchor:start;fill:#9e9e9e;fill-opacity:1;stroke-width:0.26458332">s</tspan></text>
    <text
       xml:space="preserve"
       style="font-style:normal;font-variant:normal;font-weight:normal;font-stretch:normal;font-size:3.52777767px;line-height:1.25;font-family:monospace;-inkscape-font-specification:'monospace, Normal';font-variant-ligatures:normal;font-variant-caps:normal;font-variant-numeric:normal;font-feature-settings:normal;text-align:start;letter-spacing:0px;word-spacing:0px;writing-mode:lr-tb;text-anchor:start;fill:#565656;fill-opacity:1;stroke:none;stroke-width:0.26458332"
       x="52.963848"
       y="36.178761"
       id="text6023-4-6-1"
       inkscape:export-xdpi="96"
       inkscape:export-ydpi="96"><tspan
         sodipodi:role="line"
         id="tspan6021-99-1-4"
         x="52.963848"
         y="36.178761"
         style="font-style:normal;font-variant:normal;font-weight:normal;font-stretch:normal;font-size:3.52777767px;font-family:monospace;-inkscape-font-specification:'monospace, Normal';font-variant-ligatures:normal;font-variant-caps:normal;font-variant-numeric:normal;font-feature-settings:normal;text-align:start;writing-mode:lr-tb;text-anchor:start;fill:#565656;fill-opacity:1;stroke-width:0.26458332">s</tspan></text>
    <path
       style="fill:none;stroke:#c0c0c0;stroke-width:0.26458332px;stroke-linecap:butt;stroke-linejoin:miter;stroke-opacity:1;marker-end:url(#marker8047)"
       d="m 30.427083,64.998214 c -0.0065,0.02611 -0.03654,0.421653 -0.188989,0.472472 -0.05976,0.01992 -0.125992,0 -0.188987,0 -0.0315,0 -0.06632,0.01408 -0.09449,0 -0.05251,-0.02625 -0.15852,-0.18899 -0.188989,-0.18899 -0.04455,0 -0.08369,0.05128 -0.09449,0.09449 -0.02291,0.09167 0,0.188989 0,0.283482 0,0.251984 0,0.503968 0,0.755952 0,0.15749 0,0.314981 0,0.472472 0,0.06299 0,0.125992 0,0.188986 0,0.0315 0.0315,0.0945 0,0.0945 -0.04454,0 -0.05743,-0.06979 -0.0945,-0.0945 -0.0586,-0.03907 -0.120658,-0.07741 -0.188986,-0.09449 -0.06112,-0.01527 -0.129225,0.01992 -0.188989,0 -0.0922,-0.03073 -0.06732,-0.155329 -0.188987,-0.09449 -0.03984,0.01992 -0.07457,0.05465 -0.0945,0.09449 -0.01408,0.02817 0,0.063 0,0.09449 0,0.13707 0.06047,0.300498 -0.09449,0.377979 -0.02817,0.01408 -0.06461,0.0099 -0.09449,0 -0.06682,-0.02228 -0.130386,-0.05543 -0.188989,-0.0945 -0.132196,-0.08813 -0.12542,-0.252127 -0.377976,-0.188987 -0.06833,0.01709 -0.09449,0.118555 -0.09449,0.188987 0,0.07043 0.07222,0.122171 0.09449,0.188989 0.01,0.02988 0,0.063 0,0.09449 0,0.09449 0,0.188989 0,0.283483 0,0.0315 0,0.06299 0,0.09449 0,0.0315 0.01408,0.06632 0,0.0945 -0.01992,0.03984 -0.05465,0.07457 -0.09449,0.09449 -0.02817,0.01408 -0.063,0 -0.09449,0 -0.233535,0 -0.144444,0.04455 -0.283483,-0.09449 -0.0315,-0.0315 -0.05465,-0.114416 -0.0945,-0.0945 -0.178583,0.08929 -0.04953,0.526566 -0.09449,0.661458 -0.01408,0.04226 -0.063,0.063 -0.09449,0.0945 -0.0315,0.0315 -0.04995,0.09449 -0.09449,0.09449 -0.04455,0 -0.05465,-0.07457 -0.0945,-0.09449 -0.02817,-0.01408 -0.06632,0.01408 -0.09449,0 -0.03984,-0.01992 -0.05743,-0.119205 -0.09449,-0.0945 -0.0945,0.063 -0.120848,0.192628 -0.188989,0.283483 -0.02673,0.03564 -0.08041,0.05223 -0.09449,0.09449 -0.01992,0.05976 0.01992,0.129225 0,0.188989 -0.01058,0.03177 -0.355522,0.355521 -0.377977,0.377976 -0.0315,0.0315 -0.04995,0.09449 -0.09449,0.09449 -0.07013,0 -0.176051,-0.296418 -0.283482,-0.188986 -0.02227,0.02228 0.01409,0.06632 0,0.09449 -0.01992,0.03984 -0.07457,0.05465 -0.09449,0.09449 -0.01409,0.02817 0.01,0.06461 0,0.0945 -0.02227,0.06682 -0.07222,0.122169 -0.09449,0.188987 -0.01,0.02988 0.01,0.06461 0,0.0945 -0.05721,0.171622 -0.08087,0.175366 -0.188988,0.28348"
       id="path8111"
       inkscape:connector-curvature="0"
       inkscape:export-xdpi="96"
       inkscape:export-ydpi="96" />
    <path
       style="fill:none;stroke:#c0c0c0;stroke-width:0.26458332px;stroke-linecap:butt;stroke-linejoin:miter;stroke-opacity:1;marker-end:url(#marker8047-3)"
       d="m 74.31975,34.81216 c 0.02564,0.0082 0.41843,0.06358 0.459339,0.218984 0.01604,0.06092 -0.0081,0.125733 -0.01215,0.188596 -0.002,0.03144 0.0098,0.06709 -0.0061,0.0943 -0.02957,0.05071 -0.198794,0.146038 -0.200754,0.176444 -0.0029,0.04446 0.04579,0.08681 0.08822,0.100371 0.09001,0.02876 0.188598,0.01215 0.282895,0.01823 0.251463,0.01621 0.502925,0.03241 0.754387,0.04862 0.157164,0.01013 0.314329,0.02026 0.471494,0.03039 0.06286,0.0041 0.125731,0.0081 0.188595,0.01215 0.03144,0.002 0.09633,-0.02536 0.0943,0.0061 -0.0029,0.04445 -0.07334,0.05282 -0.100382,0.08823 -0.04276,0.05597 -0.08501,0.11543 -0.106449,0.182518 -0.01917,0.06001 0.01157,0.130238 -0.01215,0.188597 -0.0366,0.09003 -0.159337,0.05719 -0.106449,0.182519 0.01732,0.04104 0.04974,0.07793 0.08822,0.100382 0.02721,0.01586 0.06287,0.0041 0.0943,0.0061 0.136786,0.0088 0.303765,-0.04102 0.371119,0.118603 0.01224,0.02902 0.0057,0.06511 -0.0061,0.0943 -0.02653,0.06525 -0.0637,0.126551 -0.106459,0.18252 -0.09645,0.126254 -0.259671,0.108945 -0.212905,0.365039 0.01266,0.06929 0.112233,0.101919 0.182519,0.106449 0.07028,0.0045 0.126563,-0.06421 0.194675,-0.08214 0.03046,-0.0081 0.06287,0.0041 0.09429,0.0061 0.09429,0.0061 0.188598,0.01215 0.282896,0.01823 0.03144,0.002 0.06286,0.0041 0.09429,0.0061 0.03144,0.002 0.06709,-0.0098 0.09431,0.0061 0.03848,0.02244 0.0709,0.05933 0.08822,0.100371 0.01224,0.02902 -0.0041,0.06287 -0.0061,0.0943 -0.01502,0.233051 0.03517,0.14701 -0.112526,0.276819 -0.03346,0.02941 -0.117694,0.04718 -0.100382,0.08823 0.07762,0.183956 0.522291,0.08329 0.654012,0.136836 0.04127,0.01677 0.05882,0.06692 0.08823,0.100372 0.02941,0.03346 0.09108,0.05592 0.08822,0.100371 -0.0029,0.04446 -0.07793,0.04974 -0.100372,0.08823 -0.01586,0.02721 0.0098,0.06709 -0.0061,0.09429 -0.02244,0.03848 -0.122653,0.04964 -0.100382,0.08822 0.05679,0.09836 0.184457,0.132986 0.270742,0.20683 0.03385,0.02897 0.04695,0.0836 0.08822,0.100371 0.05836,0.02372 0.130238,-0.01157 0.188598,0.01215 0.03102,0.0126 0.331919,0.377651 0.352883,0.401503 0.02941,0.03346 0.09108,0.05592 0.08822,0.100372 -0.0045,0.06999 -0.307127,0.156622 -0.206827,0.27074 0.0208,0.02366 0.06709,-0.0098 0.0943,0.0061 0.03848,0.02244 0.04974,0.07793 0.08822,0.100372 0.02721,0.01587 0.06512,-0.0058 0.09431,0.0061 0.06525,0.02652 0.117271,0.07993 0.182518,0.106449 0.02918,0.0119 0.06512,-0.0058 0.09431,0.0061 0.167587,0.06813 0.169801,0.09198 0.270738,0.206829"
       id="path8111-2"
       inkscape:connector-curvature="0"
       inkscape:export-xdpi="96"
       inkscape:export-ydpi="96" />
    <text
       xml:space="preserve"
       style="font-style:normal;font-weight:normal;font-size:3.52777778px;line-height:1.25;font-family:monospace;letter-spacing:0px;word-spacing:0px;fill:#a6a6a6;fill-opacity:1;stroke:none;stroke-width:0.26458332;-inkscape-font-specification:'monospace, Normal';font-stretch:normal;font-variant:normal;text-anchor:start;text-align:start;writing-mode:lr;font-variant-ligatures:normal;font-variant-caps:normal;font-variant-numeric:normal;font-feature-settings:normal;"
       x="20.521696"
       y="74.522285"
       id="text6023-73"
       inkscape:export-xdpi="96"
       inkscape:export-ydpi="96"><tspan
         sodipodi:role="line"
         id="tspan6021-3"
         x="20.521696"
         y="74.522285"
         style="font-size:3.52777778px;fill:#a6a6a6;fill-opacity:1;stroke-width:0.26458332;font-style:normal;-inkscape-font-specification:'monospace, Normal';font-family:monospace;font-weight:normal;font-stretch:normal;font-variant:normal;text-anchor:start;text-align:start;writing-mode:lr;font-variant-ligatures:normal;font-variant-caps:normal;font-variant-numeric:normal;font-feature-settings:normal;">(x,t)</tspan></text>
    <text
       xml:space="preserve"
       style="font-style:normal;font-weight:normal;font-size:3.52777778px;line-height:1.25;font-family:monospace;letter-spacing:0px;word-spacing:0px;fill:#a6a6a6;fill-opacity:1;stroke:none;stroke-width:0.26458332;-inkscape-font-specification:'monospace, Normal';font-stretch:normal;font-variant:normal;text-anchor:start;text-align:start;writing-mode:lr;font-variant-ligatures:normal;font-variant-caps:normal;font-variant-numeric:normal;font-feature-settings:normal;"
       x="78.212898"
       y="43.822392"
       id="text6023-73-9"
       inkscape:export-xdpi="96"
       inkscape:export-ydpi="96"><tspan
         sodipodi:role="line"
         id="tspan6021-3-2"
         x="78.212898"
         y="43.822392"
         style="font-size:3.52777778px;fill:#a6a6a6;fill-opacity:1;stroke-width:0.26458332;font-style:normal;-inkscape-font-specification:'monospace, Normal';font-family:monospace;font-weight:normal;font-stretch:normal;font-variant:normal;text-anchor:start;text-align:start;writing-mode:lr;font-variant-ligatures:normal;font-variant-caps:normal;font-variant-numeric:normal;font-feature-settings:normal;">(y,s)</tspan></text>
    <path
       style="fill:none;stroke:#4c4c4c;stroke-width:0.26499999;stroke-linecap:butt;stroke-linejoin:miter;stroke-miterlimit:4;stroke-dasharray:1.05999995, 0.26499999000000002;stroke-dashoffset:0;stroke-opacity:1;marker-start:url(#Arrow1Mstart)"
       d="M 68.319195,31.471724 C 51.782739,21.360861 38.595994,39.42851 55.656993,46.401784 c 11.140197,4.553288 1.566443,15.061727 1.566443,15.061727"
       id="path10153"
       inkscape:connector-curvature="0"
       sodipodi:nodetypes="csc"
       inkscape:export-xdpi="96"
       inkscape:export-ydpi="96" />
    <path
       style="fill:none;stroke:#a3a3a3;stroke-width:0.24892136;stroke-linecap:butt;stroke-linejoin:miter;stroke-miterlimit:4;stroke-dasharray:none;stroke-opacity:1;marker-end:url(#marker15335)"
       d="m 55.873406,23.651305 c -29.89557,3.489176 -19.41112,11.85261 -19.328254,16.224661 0.102547,5.410327 -6.502961,10.90367 -6.502961,10.90367"
       id="path15295"
       inkscape:connector-curvature="0"
       sodipodi:nodetypes="csc"
       inkscape:export-xdpi="96"
       inkscape:export-ydpi="96" />
  </g>
</svg>
